# xmcd
# Copyright (C) 1995-1998 Ti Kan
#
# Track frame offsets:
#       150
#       14080
#       34877
#       51044
#       68963
#       85126
#       105936
#       123477
#       139873
#       160162
#       180183
#
# Disc length: 2605 seconds
#
# Revision: 0
# Processed by: cddbd v1.4PL0 Copyright (c) Steve Scherf et al.
# Submitted via: CD-Transfer v1.0
#
DISCID=8b0a2b0b
DTITLE=Lobith - Panorama
DYEAR=2003
DGENRE=
TTITLE0=Storm In My Mind
TTITLE1=I Smoke You
TTITLE2=Panorama
TTITLE3=Hesitate
TTITLE4=Lost Head
TTITLE5=Smell The Summersun
TTITLE6=After The Rain
TTITLE7=Tasteful Liaison
TTITLE8=Undercover
TTITLE9=Summerface
TTITLE10=The Brightest Star
EXTD=
EXTT0=
EXTT1=
EXTT2=
EXTT3=
EXTT4=
EXTT5=
EXTT6=
EXTT7=
EXTT8=
EXTT9=
EXTT10=
PLAYORDER=
